<svg width="192" height="26" viewBox="0 0 192 26" fill="none" xmlns="http://www.w3.org/2000/svg">
<path d="M5.54 13.5C5.54 14.78 5.83 15.89 6.41 16.83C6.99 17.75 7.75 18.45 8.69 18.93C9.65 19.41 10.7 19.65 11.84 19.65C12.84 19.65 13.72 19.52 14.48 19.26C15.24 19 15.92 18.66 16.52 18.24C17.12 17.82 17.65 17.37 18.11 16.89V22.35C17.27 23.01 16.35 23.53 15.35 23.91C14.35 24.29 13.08 24.48 11.54 24.48C9.86 24.48 8.31 24.22 6.89 23.7C5.47 23.18 4.25 22.43 3.23 21.45C2.21 20.47 1.42 19.31 0.86 17.97C0.3 16.63 0.0200001 15.14 0.0200001 13.5C0.0200001 11.86 0.3 10.37 0.86 9.03C1.42 7.69 2.21 6.53 3.23 5.55C4.25 4.57 5.47 3.82 6.89 3.3C8.31 2.78 9.86 2.52 11.54 2.52C13.08 2.52 14.35 2.71 15.35 3.09C16.35 3.47 17.27 3.99 18.11 4.65V10.11C17.65 9.63 17.12 9.18 16.52 8.76C15.92 8.32 15.24 7.98 14.48 7.74C13.72 7.48 12.84 7.35 11.84 7.35C10.7 7.35 9.65 7.59 8.69 8.07C7.75 8.55 6.99 9.25 6.41 10.17C5.83 11.09 5.54 12.2 5.54 13.5ZM20.9952 17.1C20.9952 15.64 21.3352 14.37 22.0152 13.29C22.6952 12.21 23.6352 11.37 24.8352 10.77C26.0352 10.17 27.3852 9.87 28.8852 9.87C30.3852 9.87 31.7252 10.17 32.9052 10.77C34.1052 11.37 35.0452 12.21 35.7252 13.29C36.4252 14.37 36.7752 15.64 36.7752 17.1C36.7752 18.54 36.4252 19.8 35.7252 20.88C35.0452 21.96 34.1052 22.8 32.9052 23.4C31.7252 24 30.3852 24.3 28.8852 24.3C27.3852 24.3 26.0352 24 24.8352 23.4C23.6352 22.8 22.6952 21.96 22.0152 20.88C21.3352 19.8 20.9952 18.54 20.9952 17.1ZM25.6452 17.1C25.6452 17.82 25.7952 18.44 26.0952 18.96C26.3952 19.46 26.7852 19.85 27.2652 20.13C27.7452 20.41 28.2852 20.55 28.8852 20.55C29.4652 20.55 29.9952 20.41 30.4752 20.13C30.9752 19.85 31.3652 19.46 31.6452 18.96C31.9452 18.44 32.0952 17.82 32.0952 17.1C32.0952 16.38 31.9452 15.76 31.6452 15.24C31.3652 14.72 30.9752 14.32 30.4752 14.04C29.9952 13.76 29.4652 13.62 28.8852 13.62C28.2852 13.62 27.7452 13.76 27.2652 14.04C26.7852 14.32 26.3952 14.72 26.0952 15.24C25.7952 15.76 25.6452 16.38 25.6452 17.1ZM49.9705 0.599999H54.5005V24H49.9705V0.599999ZM38.6905 17.1C38.6905 15.54 39.0005 14.23 39.6205 13.17C40.2605 12.11 41.0805 11.3 42.0805 10.74C43.0805 10.18 44.1405 9.9 45.2605 9.9C46.4205 9.9 47.4405 10.19 48.3205 10.77C49.2205 11.35 49.9305 12.18 50.4505 13.26C50.9705 14.32 51.2305 15.6 51.2305 17.1C51.2305 18.58 50.9705 19.86 50.4505 20.94C49.9305 22.02 49.2205 22.85 48.3205 23.43C47.4405 24.01 46.4205 24.3 45.2605 24.3C44.1405 24.3 43.0805 24.02 42.0805 23.46C41.0805 22.9 40.2605 22.09 39.6205 21.03C39.0005 19.95 38.6905 18.64 38.6905 17.1ZM43.4605 17.1C43.4605 17.82 43.6105 18.45 43.9105 18.99C44.2105 19.51 44.6105 19.92 45.1105 20.22C45.6105 20.5 46.1605 20.64 46.7605 20.64C47.2805 20.64 47.7805 20.5 48.2605 20.22C48.7605 19.94 49.1705 19.54 49.4905 19.02C49.8105 18.48 49.9705 17.84 49.9705 17.1C49.9705 16.36 49.8105 15.73 49.4905 15.21C49.1705 14.67 48.7605 14.26 48.2605 13.98C47.7805 13.7 47.2805 13.56 46.7605 13.56C46.1605 13.56 45.6105 13.71 45.1105 14.01C44.6105 14.29 44.2105 14.7 43.9105 15.24C43.6105 15.76 43.4605 16.38 43.4605 17.1ZM65.0361 24.3C63.4361 24.3 62.0461 24.01 60.8661 23.43C59.7061 22.83 58.8061 21.99 58.1661 20.91C57.5261 19.83 57.2061 18.56 57.2061 17.1C57.2061 15.62 57.5161 14.34 58.1361 13.26C58.7561 12.18 59.6461 11.35 60.8061 10.77C61.9861 10.19 63.3761 9.9 64.9761 9.9C66.5761 9.9 67.9261 10.18 69.0261 10.74C70.1261 11.28 70.9661 12.07 71.5461 13.11C72.1261 14.15 72.4161 15.41 72.4161 16.89C72.4161 17.11 72.4161 17.33 72.4161 17.55C72.4161 17.75 72.3961 17.92 72.3561 18.06H59.7561V15.54H68.2761L67.1961 16.92C67.2961 16.78 67.3761 16.61 67.4361 16.41C67.5161 16.19 67.5561 16.01 67.5561 15.87C67.5561 15.27 67.4461 14.75 67.2261 14.31C67.0061 13.87 66.6961 13.53 66.2961 13.29C65.8961 13.05 65.4261 12.93 64.8861 12.93C64.2061 12.93 63.6361 13.08 63.1761 13.38C62.7161 13.68 62.3661 14.14 62.1261 14.76C61.9061 15.36 61.7861 16.12 61.7661 17.04C61.7661 17.88 61.8861 18.6 62.1261 19.2C62.3661 19.8 62.7261 20.26 63.2061 20.58C63.6861 20.88 64.2761 21.03 64.9761 21.03C65.7761 21.03 66.4561 20.88 67.0161 20.58C67.5961 20.28 68.0561 19.83 68.3961 19.23L72.4461 20.22C71.7261 21.58 70.7461 22.6 69.5061 23.28C68.2861 23.96 66.7961 24.3 65.0361 24.3Z" fill="white"/>
<path d="M77.9734 16.62C78.3934 17.38 78.8634 18.04 79.3834 18.6C79.9234 19.16 80.5034 19.59 81.1234 19.89C81.7634 20.19 82.4334 20.34 83.1334 20.34C83.8734 20.34 84.4834 20.16 84.9634 19.8C85.4434 19.42 85.6834 18.91 85.6834 18.27C85.6834 17.73 85.5434 17.3 85.2634 16.98C84.9834 16.64 84.5334 16.32 83.9134 16.02C83.2934 15.72 82.4734 15.38 81.4534 15C80.9534 14.82 80.3734 14.57 79.7134 14.25C79.0734 13.93 78.4634 13.52 77.8834 13.02C77.3034 12.5 76.8234 11.88 76.4434 11.16C76.0634 10.42 75.8734 9.53 75.8734 8.49C75.8734 7.25 76.1934 6.18 76.8334 5.28C77.4934 4.38 78.3734 3.7 79.4734 3.24C80.5934 2.76 81.8334 2.52 83.1934 2.52C84.5934 2.52 85.8034 2.75 86.8234 3.21C87.8634 3.67 88.7234 4.25 89.4034 4.95C90.0834 5.65 90.6034 6.36 90.9634 7.08L87.0934 9.24C86.7934 8.74 86.4434 8.31 86.0434 7.95C85.6634 7.57 85.2334 7.28 84.7534 7.08C84.2934 6.86 83.7934 6.75 83.2534 6.75C82.5334 6.75 81.9834 6.91 81.6034 7.23C81.2234 7.53 81.0334 7.91 81.0334 8.37C81.0334 8.85 81.2134 9.27 81.5734 9.63C81.9534 9.99 82.4834 10.32 83.1634 10.62C83.8634 10.92 84.7034 11.24 85.6834 11.58C86.4234 11.86 87.1134 12.19 87.7534 12.57C88.3934 12.93 88.9534 13.37 89.4334 13.89C89.9334 14.41 90.3234 15.01 90.6034 15.69C90.8834 16.37 91.0234 17.15 91.0234 18.03C91.0234 19.09 90.8034 20.04 90.3634 20.88C89.9434 21.7 89.3634 22.39 88.6234 22.95C87.9034 23.51 87.0734 23.93 86.1334 24.21C85.2134 24.51 84.2634 24.66 83.2834 24.66C81.9234 24.66 80.6534 24.42 79.4734 23.94C78.3134 23.44 77.3034 22.77 76.4434 21.93C75.5834 21.09 74.9134 20.17 74.4334 19.17L77.9734 16.62ZM100.983 24.3C99.3834 24.3 97.9934 24.01 96.8134 23.43C95.6534 22.83 94.7534 21.99 94.1134 20.91C93.4734 19.83 93.1534 18.56 93.1534 17.1C93.1534 15.62 93.4634 14.34 94.0834 13.26C94.7034 12.18 95.5934 11.35 96.7534 10.77C97.9334 10.19 99.3234 9.9 100.923 9.9C102.523 9.9 103.873 10.18 104.973 10.74C106.073 11.28 106.913 12.07 107.493 13.11C108.073 14.15 108.363 15.41 108.363 16.89C108.363 17.11 108.363 17.33 108.363 17.55C108.363 17.75 108.343 17.92 108.303 18.06H95.7034V15.54H104.223L103.143 16.92C103.243 16.78 103.323 16.61 103.383 16.41C103.463 16.19 103.503 16.01 103.503 15.87C103.503 15.27 103.393 14.75 103.173 14.31C102.953 13.87 102.643 13.53 102.243 13.29C101.843 13.05 101.373 12.93 100.833 12.93C100.153 12.93 99.5834 13.08 99.1234 13.38C98.6634 13.68 98.3134 14.14 98.0734 14.76C97.8534 15.36 97.7334 16.12 97.7134 17.04C97.7134 17.88 97.8334 18.6 98.0734 19.2C98.3134 19.8 98.6734 20.26 99.1534 20.58C99.6334 20.88 100.223 21.03 100.923 21.03C101.723 21.03 102.403 20.88 102.963 20.58C103.543 20.28 104.003 19.83 104.343 19.23L108.393 20.22C107.673 21.58 106.693 22.6 105.453 23.28C104.233 23.96 102.743 24.3 100.983 24.3ZM115.631 10.2V24H111.161V10.2H115.631ZM119.621 14.88C119.381 14.64 119.121 14.45 118.841 14.31C118.581 14.17 118.251 14.1 117.851 14.1C117.411 14.1 117.021 14.22 116.681 14.46C116.341 14.7 116.081 15.05 115.901 15.51C115.721 15.97 115.631 16.53 115.631 17.19L114.551 15.6C114.551 14.5 114.761 13.52 115.181 12.66C115.621 11.8 116.191 11.12 116.891 10.62C117.591 10.12 118.321 9.87 119.081 9.87C119.581 9.87 120.061 9.97 120.521 10.17C120.981 10.37 121.331 10.65 121.571 11.01L119.621 14.88ZM122.543 10.2H127.373L130.553 17.85L133.703 10.2H138.533L130.553 25.62L122.543 10.2ZM139.953 5.01C139.953 4.29 140.213 3.71 140.733 3.27C141.253 2.81 141.873 2.58 142.593 2.58C143.333 2.58 143.953 2.81 144.453 3.27C144.973 3.71 145.233 4.29 145.233 5.01C145.233 5.73 144.973 6.32 144.453 6.78C143.953 7.24 143.333 7.47 142.593 7.47C141.873 7.47 141.253 7.24 140.733 6.78C140.213 6.32 139.953 5.73 139.953 5.01ZM140.403 10.2H144.783V24H140.403V10.2ZM152.324 17.1C152.324 17.84 152.484 18.48 152.804 19.02C153.124 19.54 153.564 19.95 154.124 20.25C154.704 20.55 155.324 20.7 155.984 20.7C156.544 20.7 157.074 20.62 157.574 20.46C158.094 20.28 158.564 20.04 158.984 19.74C159.424 19.44 159.784 19.07 160.064 18.63V23.04C159.584 23.42 158.984 23.73 158.264 23.97C157.544 24.19 156.664 24.3 155.624 24.3C154.104 24.3 152.734 24 151.514 23.4C150.314 22.8 149.364 21.96 148.664 20.88C147.984 19.8 147.644 18.54 147.644 17.1C147.644 15.64 147.984 14.38 148.664 13.32C149.364 12.24 150.314 11.4 151.514 10.8C152.734 10.2 154.104 9.9 155.624 9.9C156.664 9.9 157.544 10.02 158.264 10.26C158.984 10.48 159.584 10.76 160.064 11.1V15.54C159.784 15.1 159.414 14.73 158.954 14.43C158.514 14.13 158.034 13.9 157.514 13.74C156.994 13.58 156.484 13.5 155.984 13.5C155.324 13.5 154.704 13.66 154.124 13.98C153.564 14.3 153.124 14.73 152.804 15.27C152.484 15.81 152.324 16.42 152.324 17.1ZM170.358 24.3C168.758 24.3 167.368 24.01 166.188 23.43C165.028 22.83 164.128 21.99 163.488 20.91C162.848 19.83 162.528 18.56 162.528 17.1C162.528 15.62 162.838 14.34 163.458 13.26C164.078 12.18 164.968 11.35 166.128 10.77C167.308 10.19 168.698 9.9 170.298 9.9C171.898 9.9 173.248 10.18 174.348 10.74C175.448 11.28 176.288 12.07 176.868 13.11C177.448 14.15 177.738 15.41 177.738 16.89C177.738 17.11 177.738 17.33 177.738 17.55C177.738 17.75 177.718 17.92 177.678 18.06H165.078V15.54H173.598L172.518 16.92C172.618 16.78 172.698 16.61 172.758 16.41C172.838 16.19 172.878 16.01 172.878 15.87C172.878 15.27 172.768 14.75 172.548 14.31C172.328 13.87 172.018 13.53 171.618 13.29C171.218 13.05 170.748 12.93 170.208 12.93C169.528 12.93 168.958 13.08 168.498 13.38C168.038 13.68 167.688 14.14 167.448 14.76C167.228 15.36 167.108 16.12 167.088 17.04C167.088 17.88 167.208 18.6 167.448 19.2C167.688 19.8 168.048 20.26 168.528 20.58C169.008 20.88 169.598 21.03 170.298 21.03C171.098 21.03 171.778 20.88 172.338 20.58C172.918 20.28 173.378 19.83 173.718 19.23L177.768 20.22C177.048 21.58 176.068 22.6 174.828 23.28C173.608 23.96 172.118 24.3 170.358 24.3ZM181.286 18.99C181.986 19.57 182.616 20.03 183.176 20.37C183.756 20.69 184.266 20.92 184.706 21.06C185.146 21.18 185.526 21.24 185.846 21.24C186.306 21.24 186.646 21.14 186.866 20.94C187.086 20.74 187.196 20.48 187.196 20.16C187.196 19.86 187.106 19.61 186.926 19.41C186.746 19.19 186.436 18.98 185.996 18.78C185.576 18.58 184.996 18.37 184.256 18.15C183.596 17.91 182.966 17.63 182.366 17.31C181.786 16.97 181.306 16.52 180.926 15.96C180.546 15.4 180.356 14.68 180.356 13.8C180.356 12.96 180.576 12.25 181.016 11.67C181.476 11.09 182.086 10.65 182.846 10.35C183.626 10.05 184.516 9.9 185.516 9.9C186.316 9.9 187.056 9.99 187.736 10.17C188.436 10.35 189.086 10.59 189.686 10.89C190.306 11.19 190.886 11.54 191.426 11.94L189.806 14.88C189.226 14.34 188.566 13.9 187.826 13.56C187.086 13.2 186.406 13.02 185.786 13.02C185.366 13.02 185.046 13.1 184.826 13.26C184.626 13.42 184.526 13.63 184.526 13.89C184.526 14.19 184.646 14.44 184.886 14.64C185.146 14.84 185.506 15.03 185.966 15.21C186.446 15.37 187.026 15.58 187.706 15.84C188.426 16.1 189.086 16.4 189.686 16.74C190.306 17.08 190.796 17.51 191.156 18.03C191.536 18.55 191.726 19.24 191.726 20.1C191.726 21.58 191.266 22.7 190.346 23.46C189.446 24.2 188.176 24.57 186.536 24.57C185.536 24.57 184.606 24.45 183.746 24.21C182.906 23.99 182.126 23.69 181.406 23.31C180.686 22.91 180.016 22.47 179.396 21.99L181.286 18.99Z" fill="#4D3C77"/>
</svg>
