<svg width="165" height="31" viewBox="0 0 165 31" fill="none" xmlns="http://www.w3.org/2000/svg">
<path d="M155.162 18.6002C155.162 19.4002 155.312 20.0302 155.612 20.4902C155.912 20.9302 156.432 21.1502 157.172 21.1502C157.672 21.1502 158.092 21.0502 158.432 20.8502C158.792 20.6502 159.072 20.3602 159.272 19.9802C159.472 19.6002 159.572 19.1402 159.572 18.6002V10.2002H164.102V24.0002H159.572V21.9302C159.152 22.6702 158.602 23.2602 157.922 23.7002C157.242 24.1202 156.392 24.3302 155.372 24.3302C153.652 24.3302 152.392 23.8702 151.592 22.9502C150.812 22.0102 150.422 20.7202 150.422 19.0802V10.2002H155.162V18.6002Z" fill="#4D3C77"/>
<path d="M131.917 17.1001C131.917 15.6401 132.257 14.3701 132.937 13.2901C133.617 12.2101 134.557 11.3701 135.757 10.7701C136.957 10.1701 138.307 9.87012 139.807 9.87012C141.307 9.87012 142.647 10.1701 143.827 10.7701C145.027 11.3701 145.967 12.2101 146.647 13.2901C147.347 14.3701 147.697 15.6401 147.697 17.1001C147.697 18.5401 147.347 19.8001 146.647 20.8801C145.967 21.9601 145.027 22.8001 143.827 23.4001C142.647 24.0001 141.307 24.3001 139.807 24.3001C138.307 24.3001 136.957 24.0001 135.757 23.4001C134.557 22.8001 133.617 21.9601 132.937 20.8801C132.257 19.8001 131.917 18.5401 131.917 17.1001ZM136.567 17.1001C136.567 17.8201 136.717 18.4401 137.017 18.9601C137.317 19.4601 137.707 19.8501 138.187 20.1301C138.667 20.4101 139.207 20.5501 139.807 20.5501C140.387 20.5501 140.917 20.4101 141.397 20.1301C141.897 19.8501 142.287 19.4601 142.567 18.9601C142.867 18.4401 143.017 17.8201 143.017 17.1001C143.017 16.3801 142.867 15.7601 142.567 15.2401C142.287 14.7201 141.897 14.3201 141.397 14.0401C140.917 13.7601 140.387 13.6201 139.807 13.6201C139.207 13.6201 138.667 13.7601 138.187 14.0401C137.707 14.3201 137.317 14.7201 137.017 15.2401C136.717 15.7601 136.567 16.3801 136.567 17.1001Z" fill="#4D3C77"/>
<path d="M128.151 3H133.971L126.621 15.45V24H121.461V15.48L114.111 3H119.931L124.041 10.89L128.151 3Z" fill="#4D3C77"/>
<path d="M101.895 30.6002H97.3652V10.2002H101.895V30.6002ZM113.175 17.1002C113.175 18.7002 112.855 20.0502 112.215 21.1502C111.595 22.2502 110.785 23.0802 109.785 23.6402C108.805 24.2002 107.745 24.4802 106.605 24.4802C105.405 24.4802 104.365 24.1802 103.485 23.5802C102.625 22.9602 101.965 22.1002 101.505 21.0002C101.045 19.8802 100.815 18.5802 100.815 17.1002C100.815 15.6002 101.045 14.3002 101.505 13.2002C101.965 12.1002 102.625 11.2502 103.485 10.6502C104.365 10.0302 105.405 9.72021 106.605 9.72021C107.745 9.72021 108.805 10.0002 109.785 10.5602C110.785 11.1202 111.595 11.9502 112.215 13.0502C112.855 14.1302 113.175 15.4802 113.175 17.1002ZM108.405 17.1002C108.405 16.3802 108.255 15.7702 107.955 15.2702C107.655 14.7702 107.255 14.3902 106.755 14.1302C106.255 13.8702 105.705 13.7402 105.105 13.7402C104.585 13.7402 104.075 13.8702 103.575 14.1302C103.095 14.3702 102.695 14.7402 102.375 15.2402C102.055 15.7402 101.895 16.3602 101.895 17.1002C101.895 17.8402 102.055 18.4602 102.375 18.9602C102.695 19.4602 103.095 19.8402 103.575 20.1002C104.075 20.3402 104.585 20.4602 105.105 20.4602C105.705 20.4602 106.255 20.3302 106.755 20.0702C107.255 19.8102 107.655 19.4302 107.955 18.9302C108.255 18.4302 108.405 17.8202 108.405 17.1002Z" fill="white"/>
<path d="M89.3091 0.600098H93.8691V24.0001H89.3091V0.600098Z" fill="white"/>
<path d="M79.1318 24.3001C77.5318 24.3001 76.1418 24.0101 74.9618 23.4301C73.8018 22.8301 72.9018 21.9901 72.2618 20.9101C71.6218 19.8301 71.3018 18.5601 71.3018 17.1001C71.3018 15.6201 71.6118 14.3401 72.2318 13.2601C72.8518 12.1801 73.7418 11.3501 74.9018 10.7701C76.0818 10.1901 77.4718 9.90015 79.0718 9.90015C80.6718 9.90015 82.0218 10.1801 83.1218 10.7401C84.2218 11.2801 85.0618 12.0701 85.6418 13.1101C86.2218 14.1501 86.5118 15.4101 86.5118 16.8901C86.5118 17.1101 86.5118 17.3301 86.5118 17.5501C86.5118 17.7501 86.4918 17.9201 86.4518 18.0601H73.8518V15.5401H82.3718L81.2918 16.9201C81.3918 16.7801 81.4718 16.6101 81.5318 16.4101C81.6118 16.1901 81.6518 16.0101 81.6518 15.8701C81.6518 15.2701 81.5418 14.7501 81.3218 14.3101C81.1018 13.8701 80.7918 13.5301 80.3918 13.2901C79.9918 13.0501 79.5218 12.9301 78.9818 12.9301C78.3018 12.9301 77.7318 13.0801 77.2718 13.3801C76.8118 13.6801 76.4618 14.1401 76.2218 14.7601C76.0018 15.3601 75.8818 16.1201 75.8618 17.0401C75.8618 17.8801 75.9818 18.6001 76.2218 19.2001C76.4618 19.8001 76.8218 20.2601 77.3018 20.5801C77.7818 20.8801 78.3718 21.0301 79.0718 21.0301C79.8718 21.0301 80.5518 20.8801 81.1118 20.5801C81.6918 20.2801 82.1518 19.8301 82.4918 19.2301L86.5418 20.2201C85.8218 21.5801 84.8418 22.6001 83.6018 23.2801C82.3818 23.9601 80.8918 24.3001 79.1318 24.3001Z" fill="white"/>
<path d="M50.388 15.21V10.65H66.288V15.21H50.388ZM63.078 3H68.148V24H63.078V3ZM48.978 3H54.048V24H48.978V3Z" fill="white"/>
<path d="M38.3508 24.3001C36.7508 24.3001 35.3607 24.0101 34.1807 23.4301C33.0207 22.8301 32.1208 21.9901 31.4808 20.9101C30.8408 19.8301 30.5208 18.5601 30.5208 17.1001C30.5208 15.6201 30.8308 14.3401 31.4508 13.2601C32.0708 12.1801 32.9608 11.3501 34.1208 10.7701C35.3008 10.1901 36.6908 9.90015 38.2908 9.90015C39.8908 9.90015 41.2408 10.1801 42.3408 10.7401C43.4408 11.2801 44.2808 12.0701 44.8608 13.1101C45.4408 14.1501 45.7308 15.4101 45.7308 16.8901C45.7308 17.1101 45.7308 17.3301 45.7308 17.5501C45.7308 17.7501 45.7108 17.9201 45.6708 18.0601H33.0707V15.5401H41.5907L40.5108 16.9201C40.6108 16.7801 40.6908 16.6101 40.7508 16.4101C40.8308 16.1901 40.8708 16.0101 40.8708 15.8701C40.8708 15.2701 40.7608 14.7501 40.5408 14.3101C40.3208 13.8701 40.0108 13.5301 39.6108 13.2901C39.2108 13.0501 38.7408 12.9301 38.2008 12.9301C37.5208 12.9301 36.9508 13.0801 36.4908 13.3801C36.0308 13.6801 35.6808 14.1401 35.4408 14.7601C35.2208 15.3601 35.1008 16.1201 35.0808 17.0401C35.0808 17.8801 35.2008 18.6001 35.4408 19.2001C35.6808 19.8001 36.0407 20.2601 36.5208 20.5801C37.0008 20.8801 37.5908 21.0301 38.2908 21.0301C39.0908 21.0301 39.7708 20.8801 40.3308 20.5801C40.9108 20.2801 41.3708 19.8301 41.7108 19.2301L45.7608 20.2201C45.0408 21.5801 44.0608 22.6001 42.8208 23.2801C41.6008 23.9601 40.1108 24.3001 38.3508 24.3001Z" fill="white"/>
<path d="M21.7201 14.9702L25.8001 3.00019H31.8301L22.7401 25.2302L15.9601 12.5702L9.21012 25.2302L0.120117 3.00019H6.12012L10.2601 14.9702L15.9601 1.9502L21.7201 14.9702Z" fill="white"/>
</svg>
